<svg version="1.0" xmlns="http://www.w3.org/2000/svg" width="300.000000pt" height="122.000000pt" viewBox="0 0 300.000000 122.000000" preserveAspectRatio="xMidYMid meet">
	<g transform="translate(0.000000,122.000000) scale(0.100000,-0.100000)" fill="#ffffff" stroke="none">
		<path d="M303 1018 c-45 -50 -79 -147 -88 -253 -3 -46 -5 -50 -27 -46 -75 12 -93 -7 -25 -28 l44 -14 7 -105 c7 -121 26 -172 69 -187 38 -13 85 13 119 68 28 45 88 211 88 245 0 12 5 24 10 27 6 4 10 -23 10 -73 0 -142 33 -257 76 -268 72 -18 166 106 200 266 17 80 14 233 -5 301 -15 50 -47 81 -79 77 -40 -4 -42 -46 -4 -90 43 -49 50 -66 57 -143 9 -91 -13 -197 -58 -279 -46 -83 -70 -87 -91 -15 -22 73 -39 260 -31 341 6 58 5 69 -10 74 -29 12 -69 -28 -78 -77 -36 -202 -109 -389 -152 -389 -18 0 -33 49 -44 145 -8 69 -7 81 7 90 46 28 81 75 97 128 21 73 22 170 1 203 -21 31 -65 32 -93 2z m71 -44 c20 -53 -8 -183 -50 -234 -47 -55 -49 -41 -18 123 8 43 20 89 26 102 13 28 33 33 42 9z" />
		<path d="M1438 997 c-37 -30 -48 -65 -55 -174 -3 -51 -9 -93 -12 -93 -3 0 -15 7 -25 15 -26 19 -79 19 -117 0 -39 -21 -87 -88 -95 -134 -8 -43 -56 -124 -87 -144 -12 -8 -36 -17 -53 -21 -37 -8 -77 19 -92 64 -11 30 -10 30 29 36 77 13 140 75 142 139 1 53 -31 79 -94 73 -92 -9 -149 -89 -149 -211 0 -96 48 -156 124 -157 50 0 116 39 146 87 l28 43 7 -36 c9 -48 54 -94 93 -94 40 0 73 29 102 89 13 28 26 51 29 51 3 0 4 -25 3 -55 -4 -64 8 -85 48 -85 31 0 82 45 100 91 14 34 30 38 30 9 0 -35 28 -77 59 -90 58 -24 105 6 138 86 10 24 22 44 26 44 4 0 5 -27 1 -60 -6 -57 -5 -60 19 -71 39 -18 74 -3 107 44 63 90 58 88 52 28 -4 -45 -2 -57 13 -68 47 -33 99 -3 148 87 23 43 27 36 16 -25 -8 -43 -7 -52 8 -63 10 -7 29 -12 43 -10 23 3 25 7 30 74 5 66 9 75 55 139 76 104 79 102 71 -58 -7 -129 -7 -136 13 -146 37 -20 67 -13 101 25 17 20 36 47 42 60 15 33 28 30 28 -5 0 -41 37 -80 83 -88 33 -5 41 -2 70 29 18 19 39 54 47 77 21 65 34 62 25 -5 -6 -53 -13 -65 -64 -124 -117 -133 -141 -182 -120 -246 12 -37 44 -54 105 -54 37 0 51 6 74 28 39 39 50 86 57 237 l6 130 69 88 c37 49 68 93 68 98 0 26 -30 1 -77 -62 -28 -39 -53 -67 -56 -62 -2 4 2 40 10 78 26 139 28 165 7 165 -10 0 -30 -12 -46 -27 l-28 -27 -23 22 c-65 62 -176 -4 -208 -123 -6 -22 -20 -59 -32 -83 -23 -44 -73 -100 -82 -90 -3 3 -1 45 5 94 13 119 13 197 -2 212 -36 36 -95 -8 -159 -119 -19 -32 -37 -59 -40 -59 -8 0 -2 34 17 118 21 89 2 107 -57 54 -29 -26 -33 -36 -38 -103 -4 -41 -14 -88 -24 -105 -21 -40 -66 -94 -78 -94 -14 0 -10 140 6 203 18 69 20 127 3 127 -6 0 -26 -11 -45 -26 -31 -23 -33 -29 -33 -82 0 -39 -8 -73 -24 -107 -25 -55 -72 -115 -88 -115 -21 0 -2 265 26 374 26 100 34 190 16 201 -5 3 -23 -7 -40 -22 -35 -31 -45 -67 -56 -185 -6 -76 -7 -77 -27 -63 -30 21 -94 19 -133 -6 -41 -25 -72 -74 -89 -140 -22 -81 -92 -178 -110 -150 -10 18 14 279 34 356 22 87 30 190 15 205 -5 5 -20 -1 -36 -13z m-429 -290 c20 -53 -23 -120 -86 -133 l-31 -6 9 42 c22 99 86 156 108 97z m342 3 c26 -15 24 -54 -7 -140 -40 -107 -98 -157 -119 -102 -29 76 -22 170 16 224 16 22 28 28 55 28 20 0 44 -5 55 -10z m402 1 c23 -9 25 -14 20 -53 -3 -24 -23 -80 -44 -124 -50 -106 -76 -118 -105 -48 -17 40 -18 121 -3 161 24 64 71 87 132 64z m957 -6 c40 -21 39 -54 -2 -151 -35 -83 -69 -120 -98 -104 -39 21 -54 144 -24 203 35 69 66 82 124 52z m14 -397 c-13 -159 -29 -208 -70 -208 -43 0 -59 92 -28 152 22 43 86 128 96 128 5 0 5 -33 2 -72z" />
		<path d="M2002 934 c-16 -11 -22 -25 -22 -54 0 -47 13 -57 45 -36 28 18 42 70 25 91 -16 19 -20 19 -48 -1z" />
	</g>
</svg>
